HIERARCHY
ROOT Hips
{
	OFFSET 50.911201 12.420585 96.020699
	CHANNELS 6 Xposition Yposition Zposition Xrotation Yrotation Zrotation
	JOINT spine
	{
		OFFSET 0.000000 -0.467661 8.132492
		CHANNELS 3 Xrotation Yrotation Zrotation
		JOINT spine1
		{
			OFFSET 0.000000 -0.000002 10.349800
			CHANNELS 3 Xrotation Yrotation Zrotation
			JOINT spine2
			{
				OFFSET 0.000000 -0.000001 9.916992
				CHANNELS 3 Xrotation Yrotation Zrotation
				JOINT Neck
				{
					OFFSET 0.000000 -1.213904 25.460999
					CHANNELS 3 Xrotation Yrotation Zrotation
					JOINT Head
					{
						OFFSET 0.000000 -0.000001 7.692444
						CHANNELS 3 Xrotation Yrotation Zrotation
						End Site
						{
							OFFSET 0.000000 6.140627 18.619995
						}
					}
				}
				JOINT RightShoulder
				{
					OFFSET -4.175751 0.581443 10.709595
					CHANNELS 3 Xrotation Yrotation Zrotation
					JOINT RightArm
					{
						OFFSET 0.000000 -0.000002 14.046600
						CHANNELS 3 Xrotation Yrotation Zrotation
						JOINT RightArmRoll
						{
							OFFSET 0.000000 -0.000002 7.090973
							CHANNELS 3 Xrotation Yrotation Zrotation
							JOINT RightForeArm
							{
								OFFSET 0.000000 -0.000003 20.653503
								CHANNELS 3 Xrotation Yrotation Zrotation
								JOINT RightForeArmRoll
								{
									OFFSET 0.000000 -0.000002 7.957184
									CHANNELS 3 Xrotation Yrotation Zrotation
									JOINT RightHand
									{
										OFFSET 0.000000 -0.000002 15.968292
										CHANNELS 3 Xrotation Yrotation Zrotation
										End Site
										{
											OFFSET 0.000000 0.000000 0.100006
										}
									}
								}
							}
						}
					}
				}
				JOINT LeftShoulder
				{
					OFFSET 4.175751 0.581443 10.709595
					CHANNELS 3 Xrotation Yrotation Zrotation
					JOINT LeftArm
					{
						OFFSET 0.000000 -0.000002 14.046600
						CHANNELS 3 Xrotation Yrotation Zrotation
						JOINT LeftArmRoll
						{
							OFFSET 0.000000 -0.000002 7.090988
							CHANNELS 3 Xrotation Yrotation Zrotation
							JOINT LeftForeArm
							{
								OFFSET 0.000000 -0.000003 20.653503
								CHANNELS 3 Xrotation Yrotation Zrotation
								JOINT LeftForeArmRoll
								{
									OFFSET 0.000000 -0.000002 7.957184
									CHANNELS 3 Xrotation Yrotation Zrotation
									JOINT LeftHand
									{
										OFFSET 0.000000 -0.000002 15.968307
										CHANNELS 3 Xrotation Yrotation Zrotation
										End Site
										{
											OFFSET 0.000000 0.000000 0.100006
										}
									}
								}
							}
						}
					}
				}
			}
		}
	}
	JOINT RightUpLeg
	{
		OFFSET -7.208340 1.108840 -1.321823
		CHANNELS 3 Xrotation Yrotation Zrotation
		JOINT RightUpLegRoll
		{
			OFFSET 0.000000 -0.000003 18.723801
			CHANNELS 3 Xrotation Yrotation Zrotation
			JOINT RightLeg
			{
				OFFSET 0.000000 0.000004 -23.186600
				CHANNELS 3 Xrotation Yrotation Zrotation
				JOINT RightLegRoll
				{
					OFFSET 0.000000 -0.000004 23.262398
					CHANNELS 3 Xrotation Yrotation Zrotation
					JOINT RightFoot
					{
						OFFSET 0.000000 -0.000004 19.362106
						CHANNELS 3 Xrotation Yrotation Zrotation
						JOINT RightToeBase
						{
							OFFSET 0.000000 -0.000002 16.185699
							CHANNELS 3 Xrotation Yrotation Zrotation
							End Site
							{
								OFFSET 0.006859 0.903521 7.838623
							}
						}
					}
				}
			}
		}
	}
	JOINT LeftUpLeg
	{
		OFFSET 7.208340 1.108840 -1.321823
		CHANNELS 3 Xrotation Yrotation Zrotation
		JOINT LeftUpLegRoll
		{
			OFFSET 0.000000 -0.000003 18.723900
			CHANNELS 3 Xrotation Yrotation Zrotation
			JOINT LeftLeg
			{
				OFFSET 0.000000 -0.000004 23.186508
				CHANNELS 3 Xrotation Yrotation Zrotation
				JOINT LeftLegRoll
				{
					OFFSET 0.000000 -0.000004 23.477509
					CHANNELS 3 Xrotation Yrotation Zrotation
					JOINT LeftFoot
					{
						OFFSET 0.000000 -0.000004 19.147003
						CHANNELS 3 Xrotation Yrotation Zrotation
						JOINT LeftToeBase
						{
							OFFSET 0.000000 -0.000002 16.185699
							CHANNELS 3 Xrotation Yrotation Zrotation
							End Site
							{
								OFFSET -0.030746 0.903521 7.838623
							}
						}
					}
				}
			}
		}
	}
}
MOTION
Frames: 5
Frame Time: 0.041667
52.127201 -6.366385 96.037788 -2.108844 0.694685 1.171970 -0.157910 -0.363682 0.178759 3.688230 -0.717673 0.377835 5.333345 -0.713181 0.386362 14.752293 1.587650 -4.770901 0.713863 -1.465576 -4.694301 -18.374083 -55.079240 -21.707550 -37.446772 -123.439441 -26.088995 0.000001 0.000016 -0.000004 12.874618 -12.556249 0.512421 -0.000009 0.000006 -3.010509 -5.000182 -7.998715 0.000165 -14.016603 56.658024 16.482691 -37.172386 118.621739 31.568257 -0.000001 -0.000007 0.000003 9.627346 10.158871 -0.172444 -0.000001 -0.000007 3.000331 -5.000200 7.998793 -0.000157 -3.626602 -174.405151 3.201571 -179.999991 0.000005 -0.952000 169.808065 -2.748010 -0.651849 0.000000 -0.000002 0.009237 68.373923 6.173544 4.003324 25.460785 -7.347334 0.005855 -2.676216 173.404132 -0.806404 -0.000005 -0.000004 -0.849112 -11.808682 0.869367 0.745898 -0.000001 -0.000003 -0.022249 70.996627 -5.592525 -5.522762 25.456957 7.347330 -0.000004 
52.131302 -6.364188 96.036980 -2.114446 0.698912 1.167394 -0.155185 -0.364032 0.179191 3.693642 -0.719122 0.377433 5.338767 -0.714630 0.385982 14.753038 1.580392 -4.768231 0.714249 -1.449347 -4.693143 -18.370969 -55.089809 -21.703817 -37.495621 -123.472321 -26.168965 0.000002 0.000016 -0.000002 12.891403 -12.563545 0.514878 -0.000006 0.000007 -3.010511 -5.000181 -7.998715 0.000166 -14.017983 56.658472 16.484356 -37.217916 118.666177 31.671877 -0.000000 -0.000009 0.000001 9.672882 10.170945 -0.179914 -0.000002 -0.000006 3.000330 -5.000202 7.998792 -0.000157 -3.611541 -174.410055 3.201933 -179.999991 0.000005 -0.952001 169.826370 -2.749149 -0.652145 0.000001 -0.000002 0.008633 68.362257 6.172810 4.005634 25.460790 -7.347334 0.005855 -2.671293 173.400116 -0.812433 -0.000005 -0.000005 -0.849136 -11.812493 0.872252 0.746077 -0.000000 -0.000003 -0.022249 70.999092 -5.592395 -5.523714 25.456953 7.347329 -0.000003 
52.136700 -6.365397 96.038483 -2.120441 0.703032 1.162920 -0.152333 -0.364329 0.179698 3.699303 -0.720567 0.377135 5.344429 -0.716071 0.385704 14.752585 1.573026 -4.765660 0.715672 -1.433018 -4.692100 -18.368699 -55.100266 -21.701060 -37.544682 -123.505325 -26.250276 0.000002 0.000016 -0.000003 12.909338 -12.571275 0.517498 -0.000008 0.000006 -3.010511 -5.000181 -7.998718 0.000165 -14.018590 56.658707 16.485083 -37.262941 118.711625 31.775181 -0.000001 -0.000008 0.000003 9.718226 10.182916 -0.187385 0.000002 -0.000007 3.000330 -5.000200 7.998794 -0.000157 -3.595699 -174.413962 3.202646 -179.999991 0.000005 -0.952001 169.845180 -2.750306 -0.651420 0.000001 -0.000003 0.008011 68.350277 6.172075 4.007864 25.460783 -7.347334 0.005854 -2.665775 173.395089 -0.818407 -0.000005 -0.000005 -0.849173 -11.815903 0.875126 0.746226 -0.000000 -0.000003 -0.022249 71.001462 -5.592256 -5.524571 25.456955 7.347331 -0.000003 
52.132000 -6.361163 96.037292 -2.126692 0.707074 1.158497 -0.149391 -0.364588 0.180256 3.705134 -0.722007 0.376908 5.350261 -0.717508 0.385498 14.751334 1.565569 -4.763151 0.717830 -1.416599 -4.691142 -18.366930 -55.110628 -21.698917 -37.593546 -123.538274 -26.332215 0.000001 0.000017 -0.000001 12.928119 -12.579446 0.520257 -0.000009 0.000005 -3.010509 -5.000180 -7.998715 0.000167 -14.018651 56.658707 16.485140 -37.308351 118.757278 31.879133 -0.000002 -0.000007 0.000001 9.763460 10.194980 -0.194889 -0.000001 -0.000006 3.000331 -5.000200 7.998793 -0.000157 -3.579308 -174.417828 3.203659 -179.999991 0.000005 -0.952001 169.864482 -2.752435 -0.651842 0.000001 -0.000002 0.007378 68.338023 6.171456 4.009931 25.460787 -7.347334 0.005855 -2.659836 173.391059 -0.824416 -0.000005 -0.000005 -0.849217 -11.819011 0.877989 0.746353 -0.000001 -0.000002 -0.022249 71.003628 -5.592170 -5.525349 25.456959 7.347331 -0.000003 
52.128201 -6.361197 96.038002 -2.133093 0.711074 1.154105 -0.146398 -0.364826 0.180844 3.711066 -0.723444 0.376721 5.356193 -0.718940 0.385331 14.749683 1.558057 -4.760685 0.720402 -1.400139 -4.690226 -18.365375 -55.121071 -21.697079 -37.642470 -123.571304 -26.414660 0.000001 0.000016 -0.000003 12.947429 -12.587882 0.523122 -0.000010 0.000006 -3.010508 -5.000179 -7.998715 0.000166 -14.018454 56.658728 16.484895 -37.354185 118.803081 31.983628 -0.000001 -0.000008 0.000003 9.808600 10.206940 -0.202393 -0.000003 -0.000007 3.000330 -5.000201 7.998793 -0.000158 -3.562603 -174.420738 3.204770 -179.999991 0.000005 -0.952000 169.883989 -2.754565 -0.651255 0.000000 -0.000002 0.006737 68.325750 6.170793 4.012087 25.460787 -7.347334 0.005855 -2.653658 173.387030 -0.830413 -0.000005 -0.000005 -0.849267 -11.821919 0.880847 0.746468 -0.000001 -0.000003 -0.022249 71.005806 -5.592121 -5.525932 25.456957 7.347332 -0.000004 
